<svg width="121" height="136" xmlns="http://www.w3.org/2000/svg" xmlns:xlink="http://www.w3.org/1999/xlink" overflow="hidden"><defs><clipPath id="clip0"><rect x="960" y="597" width="121" height="136"/></clipPath></defs><g clip-path="url(#clip0)" transform="translate(-960 -597)"><path d="M984.382 673 978.5 672.965C972.149 672.965 967 667.819 967 661.471L967 615.494C967 609.146 972.149 604 978.5 604L1024.5 604C1030.85 604 1036 609.146 1036 615.494L1035.96 622.439" stroke="#000000" stroke-width="8" stroke-miterlimit="8" fill="none" fill-rule="evenodd"/><path d="M984 632.667C984 626.223 989.223 621 995.667 621L1042.33 621C1048.78 621 1054 626.223 1054 632.667L1054 679.333C1054 685.777 1048.78 691 1042.33 691L995.667 691C989.223 691 984 685.777 984 679.333Z" stroke="#000000" stroke-width="8" stroke-miterlimit="8" fill="none" fill-rule="evenodd"/><text font-family="Arial,Arial_MSFontService,sans-serif" font-weight="700" font-size="64" transform="translate(999.309 679)">S</text></g></svg>