<svg width="68" height="77"
    xmlns="http://www.w3.org/2000/svg"
    xmlns:xlink="http://www.w3.org/1999/xlink" overflow="hidden">
    <defs>
        <clipPath id="clip0">
            <rect x="1118" y="607" width="68" height="77"/>
        </clipPath>
    </defs>
    <g clip-path="url(#clip0)" transform="translate(-1118 -607)">
        <path d="M1122 667C1122 660.373 1127.15 655 1133.5 655 1139.85 655 1145 660.373 1145 667 1145 673.627 1139.85 679 1133.5 679 1127.15 679 1122 673.627 1122 667Z" stroke="#000000" stroke-width="8" stroke-miterlimit="8" fill="none" fill-rule="evenodd"/>
        <path d="M1158 668C1158 661.373 1163.15 656 1169.5 656 1175.85 656 1181 661.373 1181 668 1181 674.627 1175.85 680 1169.5 680 1163.15 680 1158 674.627 1158 668Z" stroke="#000000" stroke-width="8" stroke-miterlimit="8" fill="none" fill-rule="evenodd"/>
        <path d="M0 0 30.6034 44.276" stroke="#000000" stroke-width="8" stroke-miterlimit="8" fill="none" fill-rule="evenodd" transform="matrix(1 0 0 -1 1140 656.276)"/>
        <path d="M1163.1 655.618 1153 641" stroke="#000000" stroke-width="8" stroke-miterlimit="8" fill="none" fill-rule="evenodd"/>
        <path d="M1146.77 632.916 1133 613" stroke="#000000" stroke-width="8" stroke-miterlimit="8" fill="none" fill-rule="evenodd"/>
    </g>
</svg>
