<svg width="88" height="83"
    xmlns="http://www.w3.org/2000/svg"
    xmlns:xlink="http://www.w3.org/1999/xlink" overflow="hidden">
    <defs>
        <clipPath id="clip0">
            <rect x="380" y="609" width="88" height="83"/>
        </clipPath>
    </defs>
    <g clip-path="url(#clip0)" transform="translate(-380 -609)">
        <path d="M388 609 388 686.609" stroke="#000000" stroke-width="8" stroke-miterlimit="8" fill="none" fill-rule="evenodd"/>
        <path d="M0 0 82.6044 0.000104987" stroke="#000000" stroke-width="8" stroke-miterlimit="8" fill="none" fill-rule="evenodd" transform="matrix(-1 0 0 1 466.604 683)"/>
        <path d="M401 644 401 667.809" stroke="#000000" stroke-width="4" stroke-miterlimit="8" fill="none" fill-rule="evenodd"/>
        <path d="M396.5 656C396.5 652.963 398.739 650.5 401.5 650.5 404.261 650.5 406.5 652.963 406.5 656 406.5 659.038 404.261 661.5 401.5 661.5 398.739 661.5 396.5 659.038 396.5 656Z" stroke="#000000" stroke-width="1.33333" stroke-miterlimit="8" fill="#000000" fill-rule="evenodd"/>
        <path d="M416 622 416 645.809" stroke="#000000" stroke-width="4" stroke-miterlimit="8" fill="none" fill-rule="evenodd"/>
        <path d="M411.5 634.5C411.5 631.739 413.739 629.5 416.5 629.5 419.261 629.5 421.5 631.739 421.5 634.5 421.5 637.261 419.261 639.5 416.5 639.5 413.739 639.5 411.5 637.261 411.5 634.5Z" stroke="#000000" stroke-width="1.33333" stroke-miterlimit="8" fill="#000000" fill-rule="evenodd"/>
        <path d="M434 637 434 660.809" stroke="#000000" stroke-width="4" stroke-miterlimit="8" fill="none" fill-rule="evenodd"/>
        <path d="M429.5 649.5C429.5 646.739 431.962 644.5 435 644.5 438.038 644.5 440.5 646.739 440.5 649.5 440.5 652.261 438.038 654.5 435 654.5 431.962 654.5 429.5 652.261 429.5 649.5Z" stroke="#000000" stroke-width="1.33333" stroke-miterlimit="8" fill="#000000" fill-rule="evenodd"/>
        <path d="M452 615 452 638.809" stroke="#000000" stroke-width="4" stroke-miterlimit="8" fill="none" fill-rule="evenodd"/>
        <path d="M447.5 627C447.5 623.963 449.962 621.5 453 621.5 456.038 621.5 458.5 623.963 458.5 627 458.5 630.038 456.038 632.5 453 632.5 449.962 632.5 447.5 630.038 447.5 627Z" stroke="#000000" stroke-width="1.33333" stroke-miterlimit="8" fill="#000000" fill-rule="evenodd"/>
    </g>
</svg>
