<svg width="121" height="136" xmlns="http://www.w3.org/2000/svg" xmlns:xlink="http://www.w3.org/1999/xlink" overflow="hidden"><defs><clipPath id="clip0"><rect x="988" y="479" width="121" height="136"/></clipPath></defs><g clip-path="url(#clip0)" transform="translate(-988 -479)"><path d="M1013 513.5C1013 507.149 1018.15 502 1024.5 502L1071.5 502C1077.85 502 1083 507.149 1083 513.5L1083 559.5C1083 565.851 1077.85 571 1071.5 571L1024.5 571C1018.15 571 1013 565.851 1013 559.5Z" stroke="#000000" stroke-width="8" stroke-miterlimit="8" fill="none" fill-rule="evenodd"/><text font-family="Arial,Arial_MSFontService,sans-serif" font-weight="700" font-size="64" transform="translate(1027 561)">S</text><path d="M1052 549.897 1062.9 549.897 1062.9 539 1075.1 539 1075.1 549.897 1086 549.897 1086 563.103 1075.1 563.103 1075.1 574 1062.9 574 1062.9 563.103 1052 563.103Z" stroke="#FFFFFF" stroke-width="4" stroke-miterlimit="8" fill-rule="evenodd"/></g></svg>