<svg width="80" height="79" xmlns="http://www.w3.org/2000/svg" xmlns:xlink="http://www.w3.org/1999/xlink" overflow="hidden"><defs><clipPath id="clip0"><rect x="1009" y="497" width="80" height="79"/></clipPath></defs><g clip-path="url(#clip0)" transform="translate(-1009 -497)"><path d="M1013 513.5C1013 507.149 1018.15 502 1024.5 502L1071.5 502C1077.85 502 1083 507.149 1083 513.5L1083 559.5C1083 565.851 1077.85 571 1071.5 571L1024.5 571C1018.15 571 1013 565.851 1013 559.5Z" stroke="#000000" stroke-width="8" stroke-miterlimit="8" fill="none" fill-rule="evenodd"/><path d="M1062 526.91C1060.71 523.513 1059.7 521.117 1055.65 518.657 1051.6 516.198 1042.87 516.865 1039.35 518.157 1035.83 519.449 1034.24 523.701 1034.52 526.41 1034.8 529.12 1036.8 532.537 1041.01 534.413 1045.22 536.289 1052.24 536.33 1055.65 538.414 1059.05 540.499 1061.54 544.166 1061.45 546.917 1061.36 549.668 1058.5 553.586 1055.1 554.92 1051.69 556.254 1045.01 556.462 1041.01 554.92 1037 553.378 1035.28 551.023 1033 546.917" stroke="#000000" stroke-width="8" stroke-miterlimit="8" fill="none" fill-rule="evenodd"/><path d="M1052 549.897 1062.9 549.897 1062.9 539 1075.1 539 1075.1 549.897 1086 549.897 1086 563.103 1075.1 563.103 1075.1 574 1062.9 574 1062.9 563.103 1052 563.103Z" stroke="#FFFFFF" stroke-width="4" stroke-miterlimit="8" fill-rule="evenodd"/></g></svg>