<svg width="127" height="136" xmlns="http://www.w3.org/2000/svg" xmlns:xlink="http://www.w3.org/1999/xlink" overflow="hidden"><defs><clipPath id="clip0"><rect x="549" y="558" width="127" height="136"/></clipPath></defs><g clip-path="url(#clip0)" transform="translate(-549 -558)"><path d="M581 592.667C581 586.223 586.223 581 592.667 581L639.333 581C645.777 581 651 586.223 651 592.667L651 639.333C651 645.777 645.777 651 639.333 651L592.667 651C586.223 651 581 645.777 581 639.333Z" stroke="#000000" stroke-width="8" stroke-miterlimit="8" fill="none" fill-rule="evenodd"/><text font-family="Arial,Arial_MSFontService,sans-serif" font-weight="700" font-size="64" transform="translate(597.648 640)">T</text><path d="M559 677 569.75 634 662 634 651.25 677Z" stroke="#000000" stroke-width="8" stroke-miterlimit="8" fill="#FFFFFF" fill-rule="evenodd"/><path d="M0 0 0.000104987 67.8645" stroke="#000000" stroke-width="8" stroke-miterlimit="8" fill="none" fill-rule="evenodd" transform="matrix(1 0 0 -1 558 680.864)"/><path d="M0 0 24.8813 0.000104987" stroke="#000000" stroke-width="8" stroke-miterlimit="8" fill="none" fill-rule="evenodd" transform="matrix(-1 0 0 1 578.881 613)"/></g></svg>