<svg width="90" height="84"
    xmlns="http://www.w3.org/2000/svg"
    xmlns:xlink="http://www.w3.org/1999/xlink" overflow="hidden">
    <defs>
        <clipPath id="clip0">
            <rect x="913" y="462" width="90" height="84"/>
        </clipPath>
    </defs>
    <g clip-path="url(#clip0)" transform="translate(-913 -462)">
        <path d="M940.01 515.833C934.092 520.631 925.261 519.895 920.285 514.188 915.309 508.482 916.072 499.966 921.99 495.167 923.526 493.922 925.322 493.009 927.256 492.492" stroke="#000000" stroke-width="8" stroke-miterlimit="8" fill="none" fill-rule="evenodd"/>
        <path d="M931.544 498.18C927.188 491.906 928.561 483.156 934.612 478.639 939.849 474.728 947.024 475.208 951.732 479.786" stroke="#000000" stroke-width="8" stroke-miterlimit="8" fill="none" fill-rule="evenodd"/>
        <path d="M949.148 486.206C947.894 476.896 954.646 468.362 964.229 467.144 973.812 465.925 982.598 472.485 983.852 481.794 984.395 485.826 983.433 489.913 981.14 493.314" stroke="#000000" stroke-width="8" stroke-miterlimit="8" fill="none" fill-rule="evenodd"/>
        <path d="M982.55 485.073C991.899 485.954 998.785 494.471 997.929 504.095 997.073 513.72 988.8 520.808 979.45 519.927 978.625 519.849 977.807 519.71 977.002 519.509" stroke="#000000" stroke-width="8" stroke-miterlimit="8" fill="none" fill-rule="evenodd"/>
        <path d="M941 526 950.5 526 950.5 505 969.5 505 969.5 526 979 526 960 545Z" fill="#000000" fill-rule="evenodd"/>
    </g>
</svg>
