<svg width="128" height="136" xmlns="http://www.w3.org/2000/svg" xmlns:xlink="http://www.w3.org/1999/xlink" overflow="hidden"><defs><clipPath id="clip0"><rect x="693" y="558" width="128" height="136"/></clipPath></defs><g clip-path="url(#clip0)" transform="translate(-693 -558)"><path d="M724 592.667C724 586.223 729.223 581 735.667 581L782.333 581C788.777 581 794 586.223 794 592.667L794 639.333C794 645.777 788.777 651 782.333 651L735.667 651C729.223 651 724 645.777 724 639.333Z" stroke="#000000" stroke-width="8" stroke-miterlimit="8" fill="none" fill-rule="evenodd"/><text font-family="Arial,Arial_MSFontService,sans-serif" font-weight="700" font-size="64" transform="translate(738.974 640)">S</text><path d="M702 677 712.75 634 805 634 794.25 677Z" stroke="#000000" stroke-width="8" stroke-miterlimit="8" fill="#FFFFFF" fill-rule="evenodd"/><path d="M0 0 0.000104987 67.8645" stroke="#000000" stroke-width="8" stroke-miterlimit="8" fill="none" fill-rule="evenodd" transform="matrix(1 0 0 -1 701 680.864)"/><path d="M0 0 24.8813 0.000104987" stroke="#000000" stroke-width="8" stroke-miterlimit="8" fill="none" fill-rule="evenodd" transform="matrix(-1 0 0 1 721.881 613)"/></g></svg>