<svg width="95" height="95" xmlns="http://www.w3.org/2000/svg" xmlns:xlink="http://www.w3.org/1999/xlink" overflow="hidden"><defs><clipPath id="clip0"><rect x="689" y="562" width="95" height="95"/></clipPath></defs><g clip-path="url(#clip0)" transform="translate(-689 -562)"><path d="M701 586.5C701 580.149 706.149 575 712.5 575L758.5 575C764.851 575 770 580.149 770 586.5L770 632.5C770 638.851 764.851 644 758.5 644L712.5 644C706.149 644 701 638.851 701 632.5Z" stroke="#000000" stroke-width="8" stroke-miterlimit="8" fill="none" fill-rule="evenodd"/><path d="M719 582 768.043 582" stroke="#000000" stroke-width="8" stroke-miterlimit="8" fill="none" fill-rule="evenodd"/><path d="M719 589 768.043 589" stroke="#000000" stroke-width="8" stroke-miterlimit="8" fill="none" fill-rule="evenodd"/><path d="M716 593 716 641.486" stroke="#000000" stroke-width="8" stroke-miterlimit="8" fill="none" fill-rule="evenodd"/><path d="M708 593 708 641.486" stroke="#000000" stroke-width="8" stroke-miterlimit="8" fill="none" fill-rule="evenodd"/><path d="M706 580 766.44 638.736" stroke="#000000" stroke-width="4" stroke-miterlimit="8" fill="none" fill-rule="evenodd"/></g></svg>