<svg width="73" height="74" xmlns="http://www.w3.org/2000/svg" xmlns:xlink="http://www.w3.org/1999/xlink" overflow="hidden"><defs><clipPath id="clip0"><rect x="1136" y="49" width="73" height="74"/></clipPath></defs><g clip-path="url(#clip0)" transform="translate(-1136 -49)"><path d="M1173 69.2016C1163.99 69.2016 1156.68 76.4987 1156.68 85.5001 1156.68 94.5016 1163.99 101.799 1173 101.799 1182.01 101.799 1189.32 94.5016 1189.32 85.5001 1189.32 76.4987 1182.01 69.2016 1173 69.2016ZM1172.93 49 1178.93 49.6045 1182.03 59.2643 1183.59 59.7467 1191.38 54.1564 1193.36 55.2336C1195.31 56.5455 1197.12 58.0393 1198.77 59.6906L1199.44 60.4973 1196.05 69.8209 1196.13 69.9209 1205.77 69.7501 1206.61 71.2925C1207.53 73.476 1208.25 75.768 1208.74 78.144L1208.92 79.9404 1201.19 85.0663 1209 90.2467 1208.74 92.8561C1208.25 95.2321 1207.53 97.524 1206.61 99.7075L1206.24 100.391 1196.6 100.22 1196.25 100.864 1199.66 110.238 1198.77 111.309C1197.12 112.961 1195.31 114.455 1193.36 115.766L1192.07 116.47 1184.32 110.916 1183.86 111.169 1181.72 111.832 1178.65 121.424 1172.93 122 1169.56 121.661 1166.64 112.564 1163.06 111.452 1155.08 117.171 1152.49 115.766 1147.85 111.94 1151.21 102.702 1149.87 101.076 1149.42 100.257 1139.64 100.431 1139.25 99.7075C1138.33 97.524 1137.61 95.2321 1137.12 92.8561L1137 91.6581 1145.18 86.2338 1145.1 85.5001 1145.26 83.9534 1137.08 78.5291 1137.12 78.144C1137.61 75.768 1138.33 73.476 1139.25 71.2925L1140.11 69.7102 1149.9 69.8838 1151.43 68.0332 1148.09 58.8603 1152.49 55.2336 1155.77 53.4555 1163.9 59.2861 1166.33 58.532 1169.27 49.3683Z" fill-rule="evenodd"/></g></svg>
