<svg width="99" height="101"
    xmlns="http://www.w3.org/2000/svg"
    xmlns:xlink="http://www.w3.org/1999/xlink" overflow="hidden">
    <defs>
        <clipPath id="clip0">
            <rect x="151" y="419" width="99" height="101"/>
        </clipPath>
    </defs>
    <g clip-path="url(#clip0)" transform="translate(-151 -419)">
        <path d="M221 461C221 455.477 225.477 451 231 451L231 451C236.523 451 241 455.477 241 461L241 480C241 485.523 236.523 490 231 490L231 490C225.477 490 221 485.523 221 480Z" stroke="#000000" stroke-width="8" stroke-miterlimit="8" fill="none" fill-rule="evenodd"/>
        <path d="M0 0 14.5477 33.0001" stroke="#000000" stroke-width="8" stroke-miterlimit="8" fill="none" fill-rule="evenodd" transform="matrix(-1 0 0 1 238.548 455)"/>
        <path d="M162 491 178.836 491" stroke="#000000" stroke-width="8" stroke-miterlimit="8" fill="none" fill-rule="evenodd"/>
        <path d="M171 461 171 490.858" stroke="#000000" stroke-width="8" stroke-miterlimit="8" fill="none" fill-rule="evenodd"/>
        <path d="M162 465 171.836 465" stroke="#000000" stroke-width="8" stroke-miterlimit="8" fill="none" fill-rule="evenodd"/>
        <path d="M165 450.5C165 447.462 167.462 445 170.5 445 173.538 445 176 447.462 176 450.5 176 453.538 173.538 456 170.5 456 167.462 456 165 453.538 165 450.5Z" fill="#000000" fill-rule="evenodd"/>
        <path d="M189 455 207 472.944C201.632 478.296 195.241 483.648 189.873 489" stroke="#000000" stroke-width="8" stroke-miterlimit="8" fill="none" fill-rule="evenodd"/>
        <path d="M156 435C156 428.925 162.641 424 170.834 424L230.166 424C238.359 424 245 428.925 245 435" stroke="#000000" stroke-width="8" stroke-miterlimit="8" fill="none" fill-rule="evenodd"/>
        <path d="M245 504C245 510.075 238.359 515 230.166 515L170.834 515C162.641 515 156 510.075 156 504" stroke="#000000" stroke-width="8" stroke-miterlimit="8" fill="none" fill-rule="evenodd"/>
    </g>
</svg>