<svg width="87" height="87" xmlns="http://www.w3.org/2000/svg" xmlns:xlink="http://www.w3.org/1999/xlink" overflow="hidden"><defs><clipPath id="clip0"><rect x="543" y="598" width="87" height="87"/></clipPath></defs><g clip-path="url(#clip0)" transform="translate(-543 -598)"><path d="M547 621.5 566.5 602 625 602 625 660.5 605.5 680 547 680ZM547 621.5 605.5 621.5 625 602M605.5 621.5 605.5 680" stroke="#000000" stroke-width="8" stroke-miterlimit="8" fill="none" fill-rule="evenodd"/><path d="M578.5 612.5C578.5 610.843 581.634 609.5 585.5 609.5 589.366 609.5 592.5 610.843 592.5 612.5 592.5 614.157 589.366 615.5 585.5 615.5 581.634 615.5 578.5 614.157 578.5 612.5Z" stroke="#000000" stroke-width="1.33333" stroke-miterlimit="8" fill-rule="evenodd"/><path d="M618.5 619.5C619.605 619.5 620.5 623.082 620.5 627.5 620.5 631.918 619.605 635.5 618.5 635.5 617.396 635.5 616.5 631.918 616.5 627.5 616.5 623.082 617.396 619.5 618.5 619.5Z" stroke="#000000" stroke-width="1.33333" stroke-miterlimit="8" fill-rule="evenodd"/><path d="M614 647.5C615.381 647.5 616.5 650.858 616.5 655 616.5 659.142 615.381 662.5 614 662.5 612.619 662.5 611.5 659.142 611.5 655 611.5 650.858 612.619 647.5 614 647.5Z" stroke="#000000" stroke-width="1.33333" stroke-miterlimit="8" fill-rule="evenodd"/><path d="M555.5 637.5C555.5 634.186 557.963 631.5 561 631.5 564.038 631.5 566.5 634.186 566.5 637.5 566.5 640.814 564.038 643.5 561 643.5 557.963 643.5 555.5 640.814 555.5 637.5Z" stroke="#000000" stroke-width="1.33333" stroke-miterlimit="8" fill-rule="evenodd"/><path d="M571.5 650.5C571.5 647.186 573.963 644.5 577 644.5 580.038 644.5 582.5 647.186 582.5 650.5 582.5 653.814 580.038 656.5 577 656.5 573.963 656.5 571.5 653.814 571.5 650.5Z" stroke="#000000" stroke-width="1.33333" stroke-miterlimit="8" fill-rule="evenodd"/><path d="M586.5 665C586.5 661.963 589.186 659.5 592.5 659.5 595.814 659.5 598.5 661.963 598.5 665 598.5 668.038 595.814 670.5 592.5 670.5 589.186 670.5 586.5 668.038 586.5 665Z" stroke="#000000" stroke-width="1.33333" stroke-miterlimit="8" fill-rule="evenodd"/></g></svg>
