<svg width="74" height="85"
    xmlns="http://www.w3.org/2000/svg"
    xmlns:xlink="http://www.w3.org/1999/xlink" overflow="hidden">
    <defs>
        <clipPath id="clip0">
            <rect x="513" y="596" width="74" height="85"/>
        </clipPath>
    </defs>
    <g clip-path="url(#clip0)" transform="translate(-513 -596)">
        <path d="M516.912 619.158 550.564 599.544 582.752 618.128 582.593 657.079 548.941 676.692 516.752 658.108Z" stroke="#000000" stroke-width="6" stroke-linecap="round" stroke-linejoin="round" stroke-miterlimit="10" fill="none" fill-rule="evenodd"/>
        <path d="M525 622 546.555 633.906" stroke="#000000" stroke-width="4" stroke-miterlimit="8" fill="none" fill-rule="evenodd"/>
        <path d="M0 0 21.5554 11.9055" stroke="#000000" stroke-width="4" stroke-miterlimit="8" fill="none" fill-rule="evenodd" transform="matrix(-1 0 0 1 575.555 622)"/>
        <path d="M0 0 0.000104987 28.462" stroke="#000000" stroke-width="4" stroke-miterlimit="8" fill="none" fill-rule="evenodd" transform="matrix(1 0 0 -1 550 668.462)"/>
        <path d="M543.5 618.5C543.5 616.291 546.634 614.5 550.5 614.5 554.366 614.5 557.5 616.291 557.5 618.5 557.5 620.709 554.366 622.5 550.5 622.5 546.634 622.5 543.5 620.709 543.5 618.5Z" stroke="#000000" stroke-width="1.33333" stroke-miterlimit="8" fill="#000000" fill-rule="evenodd"/>
        <path d="M526.5 628.5C528.709 628.5 530.5 630.962 530.5 634 530.5 637.038 528.709 639.5 526.5 639.5 524.291 639.5 522.5 637.038 522.5 634 522.5 630.962 524.291 628.5 526.5 628.5Z" stroke="#000000" stroke-width="1.33333" stroke-miterlimit="8" fill="#000000" fill-rule="evenodd"/>
        <path d="M533.5 641.5C535.709 641.5 537.5 643.962 537.5 647 537.5 650.038 535.709 652.5 533.5 652.5 531.291 652.5 529.5 650.038 529.5 647 529.5 643.962 531.291 641.5 533.5 641.5Z" stroke="#000000" stroke-width="1.33333" stroke-miterlimit="8" fill="#000000" fill-rule="evenodd"/>
        <path d="M541.5 654.5C543.709 654.5 545.5 656.962 545.5 660 545.5 663.038 543.709 665.5 541.5 665.5 539.291 665.5 537.5 663.038 537.5 660 537.5 656.962 539.291 654.5 541.5 654.5Z" stroke="#000000" stroke-width="1.33333" stroke-miterlimit="8" fill="#000000" fill-rule="evenodd"/>
        <path d="M560 651.5C561.933 651.5 563.5 653.963 563.5 657 563.5 660.038 561.933 662.5 560 662.5 558.067 662.5 556.5 660.038 556.5 657 556.5 653.963 558.067 651.5 560 651.5Z" stroke="#000000" stroke-width="1.33333" stroke-miterlimit="8" fill="#000000" fill-rule="evenodd"/>
        <path d="M573.5 631.5C575.709 631.5 577.5 633.962 577.5 637 577.5 640.038 575.709 642.5 573.5 642.5 571.291 642.5 569.5 640.038 569.5 637 569.5 633.962 571.291 631.5 573.5 631.5Z" stroke="#000000" stroke-width="1.33333" stroke-miterlimit="8" fill="#000000" fill-rule="evenodd"/>
    </g>
</svg>
