<svg width="59" height="47" xmlns="http://www.w3.org/2000/svg" xmlns:xlink="http://www.w3.org/1999/xlink" overflow="hidden"><defs><clipPath id="clip0"><rect x="721" y="517" width="59" height="47"/></clipPath></defs><g clip-path="url(#clip0)" transform="translate(-721 -517)"><path d="M735 519 735 559.173" stroke="#000000" stroke-width="8" stroke-miterlimit="8" fill="none" fill-rule="evenodd"/><path d="M0 0 13.075 0.241155" stroke="#000000" stroke-width="8" stroke-miterlimit="8" fill="none" fill-rule="evenodd" transform="matrix(-1 0 0 1 739.075 531)"/><path d="M734.999 520.369C735.071 525.616 730.877 529.927 725.631 529.999 725.495 530.001 725.359 530 725.224 529.996" stroke="#000000" stroke-width="8" stroke-miterlimit="8" fill="none" fill-rule="evenodd"/><path d="M753 530.5C753 525.806 756.806 522 761.5 522L761.5 522C766.194 522 770 525.806 770 530.5L770 547.5C770 552.194 766.194 556 761.5 556L761.5 556C756.806 556 753 552.194 753 547.5Z" stroke="#000000" stroke-width="8" stroke-miterlimit="8" fill="none" fill-rule="evenodd"/><path d="M745 551 745 559.579" stroke="#000000" stroke-width="8" stroke-miterlimit="8" fill="none" fill-rule="evenodd"/><path d="M744 520 777.2 557.6" stroke="#000000" stroke-width="4" stroke-miterlimit="8" fill="none" fill-rule="evenodd"/></g></svg>
