<svg width="78" height="65" xmlns="http://www.w3.org/2000/svg" xmlns:xlink="http://www.w3.org/1999/xlink" overflow="hidden"><defs><clipPath id="clip0"><rect x="551" y="376" width="78" height="65"/></clipPath></defs><g clip-path="url(#clip0)" transform="translate(-551 -376)"><path d="M573.747 397.5 605.97 397.5 605.967 397.673C609.189 397.7 612.142 398.927 613.696 400.885L613.717 400.877 625.845 419.639 626.706 420.525C627.217 421.364 627.5 422.285 627.5 423.253L627.5 433.493C627.5 437.363 622.977 440.5 617.396 440.5L562.604 440.5C557.024 440.5 552.5 437.363 552.5 433.493L552.5 423.253C552.5 422.285 552.783 421.364 553.294 420.525L554.054 419.743 554.021 419.743 566.566 400.336 567.43 399.525C569.067 398.353 571.332 397.658 573.749 397.637Z" stroke="#000000" stroke-width="1.33333" stroke-miterlimit="8" fill-rule="evenodd"/><path d="M563.5 422.5 615.547 422.5" stroke="#FFFFFF" stroke-width="3" stroke-miterlimit="8" fill="none" fill-rule="evenodd"/><path d="M575.5 405 583.25 405 583.25 378.5 598.75 378.5 598.75 405 606.5 405 591 420.5Z" stroke="#FFFFFF" stroke-width="3" stroke-miterlimit="8" fill-rule="evenodd"/></g></svg>