<svg width="88" height="83" xmlns="http://www.w3.org/2000/svg" xmlns:xlink="http://www.w3.org/1999/xlink" overflow="hidden"><defs><clipPath id="clip0"><rect x="47" y="483" width="88" height="83"/></clipPath></defs><g clip-path="url(#clip0)" transform="translate(-47 -483)"><path d="M55 484 55.0001 561.609" stroke="#000000" stroke-width="8" stroke-miterlimit="8" fill="none" fill-rule="evenodd"/><path d="M0 0 82.6044 0.000104987" stroke="#000000" stroke-width="8" stroke-miterlimit="8" fill="none" fill-rule="evenodd" transform="matrix(-1 0 0 1 134.604 557)"/><path d="M64.5001 516C64.5001 512.963 66.9625 510.5 70.0001 510.5 73.0376 510.5 75.5001 512.963 75.5001 516 75.5001 519.038 73.0376 521.5 70.0001 521.5 66.9625 521.5 64.5001 519.038 64.5001 516Z" stroke="#000000" stroke-width="1.33333" stroke-miterlimit="8" fill-rule="evenodd"/><path d="M84.5001 518C84.5001 514.963 87.1863 512.5 90.5001 512.5 93.8138 512.5 96.5001 514.963 96.5001 518 96.5001 521.038 93.8138 523.5 90.5001 523.5 87.1863 523.5 84.5001 521.038 84.5001 518Z" stroke="#000000" stroke-width="1.33333" stroke-miterlimit="8" fill-rule="evenodd"/><path d="M91.5001 538.5C91.5001 535.186 94.1863 532.5 97.5001 532.5 100.814 532.5 103.5 535.186 103.5 538.5 103.5 541.814 100.814 544.5 97.5001 544.5 94.1863 544.5 91.5001 541.814 91.5001 538.5Z" stroke="#000000" stroke-width="1.33333" stroke-miterlimit="8" fill-rule="evenodd"/><path d="M110.5 529C110.5 525.963 112.962 523.5 116 523.5 119.038 523.5 121.5 525.963 121.5 529 121.5 532.038 119.038 534.5 116 534.5 112.962 534.5 110.5 532.038 110.5 529Z" stroke="#000000" stroke-width="1.33333" stroke-miterlimit="8" fill-rule="evenodd"/><path d="M122.5 499.5C122.5 496.186 125.186 493.5 128.5 493.5 131.814 493.5 134.5 496.186 134.5 499.5 134.5 502.814 131.814 505.5 128.5 505.5 125.186 505.5 122.5 502.814 122.5 499.5Z" stroke="#000000" stroke-width="1.33333" stroke-miterlimit="8" fill-rule="evenodd"/><path d="M100.5 508.5C100.5 505.186 103.186 502.5 106.5 502.5 109.814 502.5 112.5 505.186 112.5 508.5 112.5 511.814 109.814 514.5 106.5 514.5 103.186 514.5 100.5 511.814 100.5 508.5Z" stroke="#000000" stroke-width="1.33333" stroke-miterlimit="8" fill-rule="evenodd"/></g></svg>
