<svg width="88" height="83"
    xmlns="http://www.w3.org/2000/svg"
    xmlns:xlink="http://www.w3.org/1999/xlink" overflow="hidden">
    <defs>
        <clipPath id="clip0">
            <rect x="47" y="483" width="88" height="83"/>
        </clipPath>
    </defs>
    <g clip-path="url(#clip0)" transform="translate(-47 -483)">
        <path d="M55 484 55.0001 561.609" stroke="#000000" stroke-width="8" stroke-miterlimit="8" fill="none" fill-rule="evenodd"/>
        <path d="M0 0 82.6044 0.000104987" stroke="#000000" stroke-width="8" stroke-miterlimit="8" fill="none" fill-rule="evenodd" transform="matrix(-1 0 0 1 134.604 557)"/>
        <path d="M71.5001 529.5C71.5001 527.291 73.0671 525.5 75.0001 525.5 76.9331 525.5 78.5001 527.291 78.5001 529.5 78.5001 531.709 76.9331 533.5 75.0001 533.5 73.0671 533.5 71.5001 531.709 71.5001 529.5Z" stroke="#000000" stroke-width="1.33333" stroke-miterlimit="8" fill="#000000" fill-rule="evenodd"/>
        <path d="M76.5001 516.5C76.5001 514.291 78.0671 512.5 80.0001 512.5 81.9331 512.5 83.5001 514.291 83.5001 516.5 83.5001 518.709 81.9331 520.5 80.0001 520.5 78.0671 520.5 76.5001 518.709 76.5001 516.5Z" stroke="#000000" stroke-width="1.33333" stroke-miterlimit="8" fill="#000000" fill-rule="evenodd"/>
        <path d="M82.5001 521C82.5001 519.067 84.2909 517.5 86.5001 517.5 88.7092 517.5 90.5001 519.067 90.5001 521 90.5001 522.933 88.7092 524.5 86.5001 524.5 84.2909 524.5 82.5001 522.933 82.5001 521Z" stroke="#000000" stroke-width="1.33333" stroke-miterlimit="8" fill="#000000" fill-rule="evenodd"/>
        <path d="M84.5001 499.5C84.5001 497.291 86.0671 495.5 88.0001 495.5 89.9331 495.5 91.5001 497.291 91.5001 499.5 91.5001 501.709 89.9331 503.5 88.0001 503.5 86.0671 503.5 84.5001 501.709 84.5001 499.5Z" stroke="#000000" stroke-width="1.33333" stroke-miterlimit="8" fill="#000000" fill-rule="evenodd"/>
        <path d="M79.5001 540C79.5001 538.067 81.0671 536.5 83.0001 536.5 84.9331 536.5 86.5001 538.067 86.5001 540 86.5001 541.933 84.9331 543.5 83.0001 543.5 81.0671 543.5 79.5001 541.933 79.5001 540Z" stroke="#000000" stroke-width="1.33333" stroke-miterlimit="8" fill="#000000" fill-rule="evenodd"/>
        <path d="M63.5001 543C63.5001 541.067 65.0671 539.5 67.0001 539.5 68.9331 539.5 70.5001 541.067 70.5001 543 70.5001 544.933 68.9331 546.5 67.0001 546.5 65.0671 546.5 63.5001 544.933 63.5001 543Z" stroke="#000000" stroke-width="1.33333" stroke-miterlimit="8" fill="#000000" fill-rule="evenodd"/>
        <path d="M125.5 508C125.5 506.067 127.067 504.5 129 504.5 130.933 504.5 132.5 506.067 132.5 508 132.5 509.933 130.933 511.5 129 511.5 127.067 511.5 125.5 509.933 125.5 508Z" stroke="#000000" stroke-width="1.33333" stroke-miterlimit="8" fill="#000000" fill-rule="evenodd"/>
        <path d="M117.5 521C117.5 519.067 119.067 517.5 121 517.5 122.933 517.5 124.5 519.067 124.5 521 124.5 522.933 122.933 524.5 121 524.5 119.067 524.5 117.5 522.933 117.5 521Z" stroke="#000000" stroke-width="1.33333" stroke-miterlimit="8" fill="#000000" fill-rule="evenodd"/>
        <path d="M103.5 521C103.5 519.067 105.067 517.5 107 517.5 108.933 517.5 110.5 519.067 110.5 521 110.5 522.933 108.933 524.5 107 524.5 105.067 524.5 103.5 522.933 103.5 521Z" stroke="#000000" stroke-width="1.33333" stroke-miterlimit="8" fill="#000000" fill-rule="evenodd"/>
        <path d="M101.5 502C101.5 500.067 103.067 498.5 105 498.5 106.933 498.5 108.5 500.067 108.5 502 108.5 503.933 106.933 505.5 105 505.5 103.067 505.5 101.5 503.933 101.5 502Z" stroke="#000000" stroke-width="1.33333" stroke-miterlimit="8" fill="#000000" fill-rule="evenodd"/>
        <path d="M92.5001 527C92.5001 525.067 94.0671 523.5 96.0001 523.5 97.9331 523.5 99.5001 525.067 99.5001 527 99.5001 528.933 97.9331 530.5 96.0001 530.5 94.0671 530.5 92.5001 528.933 92.5001 527Z" stroke="#000000" stroke-width="1.33333" stroke-miterlimit="8" fill="#000000" fill-rule="evenodd"/>
        <path d="M113.5 491.5C113.5 489.291 115.291 487.5 117.5 487.5 119.709 487.5 121.5 489.291 121.5 491.5 121.5 493.709 119.709 495.5 117.5 495.5 115.291 495.5 113.5 493.709 113.5 491.5Z" stroke="#000000" stroke-width="1.33333" stroke-miterlimit="8" fill="#000000" fill-rule="evenodd"/>
    </g>
</svg>
