<svg width="91" height="84" xmlns="http://www.w3.org/2000/svg" xmlns:xlink="http://www.w3.org/1999/xlink" overflow="hidden"><defs><clipPath id="clip0"><rect x="569" y="495" width="91" height="84"/></clipPath></defs><g clip-path="url(#clip0)" transform="translate(-569 -495)"><rect x="598" y="501" width="31" height="73" stroke="#000000" stroke-width="8" stroke-miterlimit="8" fill="none"/><path d="M572 513.167C572 506.447 577.447 501 584.167 501L632.833 501C639.553 501 645 506.447 645 513.167L645 561.833C645 568.553 639.553 574 632.833 574L584.167 574C577.447 574 572 568.553 572 561.833Z" stroke="#000000" stroke-width="4" stroke-miterlimit="8" fill="none" fill-rule="evenodd"/><path d="M655.253 506.435 637.294 512.914 635.302 509.464 649.893 497.15Z" stroke="#000000" stroke-width="1.33333" stroke-miterlimit="8" fill-rule="evenodd"/><path d="M650.559 542.699 635.968 530.386 637.96 526.936 655.92 533.415Z" stroke="#000000" stroke-width="1.33333" stroke-miterlimit="8" fill-rule="evenodd"/><path d="M658.5 525.5 640.5 522.044 640.5 517.956 658.5 514.5Z" stroke="#000000" stroke-width="1.33333" stroke-miterlimit="8" fill-rule="evenodd"/></g></svg>
