<svg width="73" height="75"
    xmlns="http://www.w3.org/2000/svg"
    xmlns:xlink="http://www.w3.org/1999/xlink" overflow="hidden">
    <defs>
        <clipPath id="clip0">
            <rect x="1096" y="367" width="73" height="75"/>
        </clipPath>
    </defs>
    <g clip-path="url(#clip0)" transform="translate(-1096 -367)">
        <path d="M1133 388.202C1123.99 388.202 1116.68 395.499 1116.68 404.5 1116.68 413.502 1123.99 420.799 1133 420.799 1142.01 420.799 1149.32 413.502 1149.32 404.5 1149.32 395.499 1142.01 388.202 1133 388.202ZM1132.93 368 1138.93 368.604 1142.03 378.264 1143.59 378.747 1151.38 373.156 1153.36 374.234C1155.31 375.545 1157.12 377.039 1158.77 378.691L1159.44 379.497 1156.05 388.821 1156.13 388.921 1165.77 388.75 1166.61 390.293C1167.53 392.476 1168.25 394.768 1168.74 397.144L1168.92 398.94 1161.19 404.066 1169 409.247 1168.74 411.856C1168.25 414.232 1167.53 416.524 1166.61 418.707L1166.24 419.391 1156.6 419.22 1156.25 419.864 1159.66 429.238 1158.77 430.309C1157.12 431.961 1155.31 433.455 1153.36 434.766L1152.07 435.47 1144.32 429.916 1143.86 430.169 1141.72 430.832 1138.65 440.424 1132.93 441 1129.56 440.661 1126.64 431.564 1123.06 430.452 1115.08 436.171 1112.49 434.766 1107.85 430.94 1111.21 421.702 1109.87 420.076 1109.42 419.257 1099.64 419.431 1099.25 418.707C1098.33 416.524 1097.61 414.232 1097.12 411.856L1097 410.658 1105.18 405.234 1105.1 404.5 1105.26 402.953 1097.08 397.529 1097.12 397.144C1097.61 394.768 1098.33 392.476 1099.25 390.293L1100.11 388.71 1109.9 388.884 1111.43 387.033 1108.09 377.86 1112.49 374.234 1115.77 372.456 1123.9 378.286 1126.33 377.532 1129.27 368.368Z" fill="#000000" fill-rule="evenodd"/>
    </g>
</svg>
