<svg width="71" height="74"
    xmlns="http://www.w3.org/2000/svg"
    xmlns:xlink="http://www.w3.org/1999/xlink" overflow="hidden">
    <defs>
        <clipPath id="clip0">
            <rect x="769" y="469" width="71" height="74"/>
        </clipPath>
    </defs>
    <g clip-path="url(#clip0)" transform="translate(-769 -469)">
        <path d="M770.5 522.5C770.5 520.291 772.067 518.5 774 518.5 775.933 518.5 777.5 520.291 777.5 522.5 777.5 524.709 775.933 526.5 774 526.5 772.067 526.5 770.5 524.709 770.5 522.5Z" stroke="#000000" stroke-width="1.33333" stroke-miterlimit="8" fill="#000000" fill-rule="evenodd"/>
        <path d="M777.5 506C777.5 504.067 779.067 502.5 781 502.5 782.933 502.5 784.5 504.067 784.5 506 784.5 507.933 782.933 509.5 781 509.5 779.067 509.5 777.5 507.933 777.5 506Z" stroke="#000000" stroke-width="1.33333" stroke-miterlimit="8" fill="#000000" fill-rule="evenodd"/>
        <path d="M785.5 516.5C785.5 514.291 787.067 512.5 789 512.5 790.933 512.5 792.5 514.291 792.5 516.5 792.5 518.709 790.933 520.5 789 520.5 787.067 520.5 785.5 518.709 785.5 516.5Z" stroke="#000000" stroke-width="1.33333" stroke-miterlimit="8" fill="#000000" fill-rule="evenodd"/>
        <path d="M801.5 476.5C801.5 474.291 803.067 472.5 805 472.5 806.933 472.5 808.5 474.291 808.5 476.5 808.5 478.709 806.933 480.5 805 480.5 803.067 480.5 801.5 478.709 801.5 476.5Z" stroke="#000000" stroke-width="1.33333" stroke-miterlimit="8" fill="#000000" fill-rule="evenodd"/>
        <path d="M780.5 536C780.5 534.067 782.067 532.5 784 532.5 785.933 532.5 787.5 534.067 787.5 536 787.5 537.933 785.933 539.5 784 539.5 782.067 539.5 780.5 537.933 780.5 536Z" stroke="#000000" stroke-width="1.33333" stroke-miterlimit="8" fill="#000000" fill-rule="evenodd"/>
        <path d="M797.5 528.5C797.5 526.291 799.067 524.5 801 524.5 802.933 524.5 804.5 526.291 804.5 528.5 804.5 530.709 802.933 532.5 801 532.5 799.067 532.5 797.5 530.709 797.5 528.5Z" stroke="#000000" stroke-width="1.33333" stroke-miterlimit="8" fill="#000000" fill-rule="evenodd"/>
        <path d="M831.5 496.5C831.5 494.291 833.291 492.5 835.5 492.5 837.709 492.5 839.5 494.291 839.5 496.5 839.5 498.709 837.709 500.5 835.5 500.5 833.291 500.5 831.5 498.709 831.5 496.5Z" stroke="#000000" stroke-width="1.33333" stroke-miterlimit="8" fill="#000000" fill-rule="evenodd"/>
        <path d="M818.5 501.5C818.5 499.291 820.291 497.5 822.5 497.5 824.709 497.5 826.5 499.291 826.5 501.5 826.5 503.709 824.709 505.5 822.5 505.5 820.291 505.5 818.5 503.709 818.5 501.5Z" stroke="#000000" stroke-width="1.33333" stroke-miterlimit="8" fill="#000000" fill-rule="evenodd"/>
        <path d="M807.5 491C807.5 489.067 809.067 487.5 811 487.5 812.933 487.5 814.5 489.067 814.5 491 814.5 492.933 812.933 494.5 811 494.5 809.067 494.5 807.5 492.933 807.5 491Z" stroke="#000000" stroke-width="1.33333" stroke-miterlimit="8" fill="#000000" fill-rule="evenodd"/>
        <path d="M820.5 480C820.5 478.067 822.067 476.5 824 476.5 825.933 476.5 827.5 478.067 827.5 480 827.5 481.933 825.933 483.5 824 483.5 822.067 483.5 820.5 481.933 820.5 480Z" stroke="#000000" stroke-width="1.33333" stroke-miterlimit="8" fill="#000000" fill-rule="evenodd"/>
        <path d="M789 470C789.299 480.16 789.598 490.32 793.895 498.136 798.191 505.951 810.428 510.083 814.779 516.893 819.13 523.704 820 539 820 539L820 539" stroke="#000000" stroke-width="8" stroke-miterlimit="8" fill="none" fill-rule="evenodd"/>
    </g>
</svg>
