<svg width="88" height="83" xmlns="http://www.w3.org/2000/svg" xmlns:xlink="http://www.w3.org/1999/xlink" overflow="hidden"><defs><clipPath id="clip0"><rect x="247" y="374" width="88" height="83"/></clipPath></defs><g clip-path="url(#clip0)" transform="translate(-247 -374)"><path d="M255 374 255 451.609" stroke="#000000" stroke-width="8" stroke-miterlimit="8" fill="none" fill-rule="evenodd"/><path d="M0 0 82.6044 0.000104987" stroke="#000000" stroke-width="8" stroke-miterlimit="8" fill="none" fill-rule="evenodd" transform="matrix(-1 0 0 1 333.604 448)"/><path d="M266.5 407C266.5 405.067 268.067 403.5 270 403.5 271.933 403.5 273.5 405.067 273.5 407 273.5 408.933 271.933 410.5 270 410.5 268.067 410.5 266.5 408.933 266.5 407Z" stroke="#000000" stroke-width="1.33333" stroke-miterlimit="8" fill-rule="evenodd"/><path d="M270.5 394C270.5 392.067 272.291 390.5 274.5 390.5 276.709 390.5 278.5 392.067 278.5 394 278.5 395.933 276.709 397.5 274.5 397.5 272.291 397.5 270.5 395.933 270.5 394Z" stroke="#000000" stroke-width="1.33333" stroke-miterlimit="8" fill-rule="evenodd"/><path d="M277.5 398C277.5 396.067 279.067 394.5 281 394.5 282.933 394.5 284.5 396.067 284.5 398 284.5 399.933 282.933 401.5 281 401.5 279.067 401.5 277.5 399.933 277.5 398Z" stroke="#000000" stroke-width="1.33333" stroke-miterlimit="8" fill-rule="evenodd"/><path d="M275.5 382.5C275.5 380.291 277.067 378.5 279 378.5 280.933 378.5 282.5 380.291 282.5 382.5 282.5 384.709 280.933 386.5 279 386.5 277.067 386.5 275.5 384.709 275.5 382.5Z" stroke="#000000" stroke-width="1.33333" stroke-miterlimit="8" fill-rule="evenodd"/><path d="M273.5 417.5C273.5 415.291 275.291 413.5 277.5 413.5 279.709 413.5 281.5 415.291 281.5 417.5 281.5 419.709 279.709 421.5 277.5 421.5 275.291 421.5 273.5 419.709 273.5 417.5Z" stroke="#000000" stroke-width="1.33333" stroke-miterlimit="8" fill-rule="evenodd"/><path d="M283.5 412C283.5 410.067 285.291 408.5 287.5 408.5 289.709 408.5 291.5 410.067 291.5 412 291.5 413.933 289.709 415.5 287.5 415.5 285.291 415.5 283.5 413.933 283.5 412Z" stroke="#000000" stroke-width="1.33333" stroke-miterlimit="8" fill-rule="evenodd"/><path d="M312.5 405C312.5 403.067 314.067 401.5 316 401.5 317.933 401.5 319.5 403.067 319.5 405 319.5 406.933 317.933 408.5 316 408.5 314.067 408.5 312.5 406.933 312.5 405Z" stroke="#000000" stroke-width="1.33333" stroke-miterlimit="8" fill-rule="evenodd"/><path d="M301.5 407C301.5 405.067 303.067 403.5 305 403.5 306.933 403.5 308.5 405.067 308.5 407 308.5 408.933 306.933 410.5 305 410.5 303.067 410.5 301.5 408.933 301.5 407Z" stroke="#000000" stroke-width="1.33333" stroke-miterlimit="8" fill-rule="evenodd"/><path d="M310.5 435C310.5 433.067 312.067 431.5 314 431.5 315.933 431.5 317.5 433.067 317.5 435 317.5 436.933 315.933 438.5 314 438.5 312.067 438.5 310.5 436.933 310.5 435Z" stroke="#000000" stroke-width="1.33333" stroke-miterlimit="8" fill-rule="evenodd"/><path d="M308.5 416C308.5 414.067 310.067 412.5 312 412.5 313.933 412.5 315.5 414.067 315.5 416 315.5 417.933 313.933 419.5 312 419.5 310.067 419.5 308.5 417.933 308.5 416Z" stroke="#000000" stroke-width="1.33333" stroke-miterlimit="8" fill-rule="evenodd"/><path d="M302.5 426C302.5 424.067 304.291 422.5 306.5 422.5 308.709 422.5 310.5 424.067 310.5 426 310.5 427.933 308.709 429.5 306.5 429.5 304.291 429.5 302.5 427.933 302.5 426Z" stroke="#000000" stroke-width="1.33333" stroke-miterlimit="8" fill-rule="evenodd"/><path d="M318.5 420C318.5 418.067 320.067 416.5 322 416.5 323.933 416.5 325.5 418.067 325.5 420 325.5 421.933 323.933 423.5 322 423.5 320.067 423.5 318.5 421.933 318.5 420Z" stroke="#000000" stroke-width="1.33333" stroke-miterlimit="8" fill-rule="evenodd"/></g></svg>
