<svg width="82" height="93" xmlns="http://www.w3.org/2000/svg" xmlns:xlink="http://www.w3.org/1999/xlink" overflow="hidden">
  <g transform="translate(-1160 -163)">
    <path d="M1237 179 1230.16 238.818C1230.16 243.337 1225.77 247 1220.37 247L1186.04 247C1180.63 247 1176.25 243.337 1176.25 238.818L1169 179.336" stroke="#000000" stroke-width="8" stroke-miterlimit="8" fill="none" fill-rule="evenodd" />
    <path d="M1203 189 1203 231.808" stroke="#000000" stroke-width="4" stroke-miterlimit="8" fill="none" fill-rule="evenodd" />
    <path d="M0 0 3.96504 41.8083" stroke="#000000" stroke-width="4" stroke-miterlimit="8" fill="none" fill-rule="evenodd" transform="matrix(-1 0 0 1 1219.97 190)" />
    <path d="M1187 191 1190.81 231.168" stroke="#000000" stroke-width="4" stroke-miterlimit="8" fill="none" fill-rule="evenodd" />
    <path d="M1187 167 1218.74 167" stroke="#000000" stroke-width="8" stroke-miterlimit="8" fill="none" fill-rule="evenodd" />
    <path d="M1161.5 174.5C1161.5 172.843 1162.84 171.5 1164.5 171.5L1240.5 171.5C1242.16 171.5 1243.5 172.843 1243.5 174.5L1243.5 174.5C1243.5 176.157 1242.16 177.5 1240.5 177.5L1164.5 177.5C1162.84 177.5 1161.5 176.157 1161.5 174.5Z" stroke="#000000" stroke-width="1.33333" stroke-miterlimit="8" fill="#000000" fill-rule="evenodd" />
  </g>
</svg>
