<svg width="82" height="93" xmlns="http://www.w3.org/2000/svg" xmlns:xlink="http://www.w3.org/1999/xlink" overflow="hidden">
  <g transform="translate(-1168 -150)">
    <path d="M1245 171 1238.27 230.818C1238.27 235.337 1233.96 239 1228.64 239L1194.87 239C1189.55 239 1185.24 235.337 1185.24 230.818L1180 185.258" stroke="#000000" stroke-width="8" stroke-miterlimit="8" fill="none" fill-rule="evenodd" />
    <path d="M1212 181 1212 223.808" stroke="#000000" stroke-width="4" stroke-miterlimit="8" fill="none" fill-rule="evenodd" />
    <path d="M0 0 3.96504 41.8083" stroke="#000000" stroke-width="4" stroke-miterlimit="8" fill="none" fill-rule="evenodd" transform="matrix(-1 0 0 1 1227.97 182)" />
    <path d="M1195 183 1198.81 223.168" stroke="#000000" stroke-width="4" stroke-miterlimit="8" fill="none" fill-rule="evenodd" />
    <path d="M1192.36 163.129 1223.01 154.915" stroke="#000000" stroke-width="8" stroke-miterlimit="8" fill="none" fill-rule="evenodd" />
    <path d="M1169.76 176.281C1169.28 174.467 1170.35 172.602 1172.17 172.116L1244.47 152.741C1246.29 152.255 1248.15 153.331 1248.64 155.146L1248.64 155.146C1249.13 156.96 1248.05 158.825 1246.23 159.311L1173.93 178.686C1172.11 179.172 1170.25 178.095 1169.76 176.281Z" stroke="#000000" stroke-width="1.33333" stroke-miterlimit="8" fill="#000000" fill-rule="evenodd" />
  </g>
</svg>
