<svg width="63" height="68"
    xmlns="http://www.w3.org/2000/svg"
    xmlns:xlink="http://www.w3.org/1999/xlink" overflow="hidden">
    <defs>
        <clipPath id="clip0">
            <rect x="858" y="518" width="63" height="68"/>
        </clipPath>
    </defs>
    <g clip-path="url(#clip0)" transform="translate(-858 -518)">
        <path d="M866.533 531.942C878.439 519.257 898.374 518.627 911.058 530.533 923.743 542.439 924.373 562.374 912.467 575.058 900.561 587.743 880.626 588.373 867.942 576.467 861.395 570.322 857.782 561.675 858.01 552.699L869.037 552.979C868.749 564.281 877.678 573.676 888.979 573.963 900.281 574.251 909.676 565.322 909.963 554.021 910.251 542.719 901.322 533.324 890.021 533.037 884.188 532.888 878.568 535.236 874.575 539.49Z" fill-rule="evenodd"/>
        <path d="M859.5 547.5 859.5 521.5 886.5 547.5Z" stroke="#000000" stroke-width="1.33333" stroke-miterlimit="8" fill="#000000" fill-rule="evenodd"/>
    </g>
</svg>
