<svg width="77" height="72" xmlns="http://www.w3.org/2000/svg" xmlns:xlink="http://www.w3.org/1999/xlink" overflow="hidden"><defs><clipPath id="clip0"><rect x="774" y="274" width="77" height="72"/></clipPath></defs><g clip-path="url(#clip0)" transform="translate(-774 -274)"><path d="M846 289.555 846 299.78C846 302.971 844.982 305.859 843.336 307.951L841.477 309.542 843.237 311.05C844.883 313.141 845.901 316.029 845.901 319.22L845.901 329.445C845.901 335.827 841.828 341 836.804 341L788.097 341C783.073 341 779 335.827 779 329.445L779 319.22C779 316.029 780.018 313.141 781.664 311.05L783.523 309.458 781.763 307.951C780.117 305.859 779.099 302.971 779.099 299.78L779.099 289.555C779.099 283.173 783.172 278 788.196 278L836.903 278C841.927 278 846 283.173 846 289.555Z" stroke="#000000" stroke-width="8" stroke-miterlimit="8" fill="none" fill-rule="evenodd"/><path d="M0 0 40.1431 0.000104987" stroke="#000000" stroke-width="4" stroke-miterlimit="8" fill="none" fill-rule="evenodd" transform="matrix(-1 0 0 1 833.143 310)"/></g></svg>