<svg width="100" height="99" xmlns="http://www.w3.org/2000/svg" xmlns:xlink="http://www.w3.org/1999/xlink" overflow="hidden"><defs><clipPath id="clip0"><rect x="580" y="561" width="100" height="99"/></clipPath></defs><g clip-path="url(#clip0)" transform="translate(-580 -561)"><path d="M584 577.667C584 570.671 589.671 565 596.667 565L647.333 565C654.329 565 660 570.671 660 577.667L660 628.333C660 635.329 654.329 641 647.333 641L596.667 641C589.671 641 584 635.329 584 628.333Z" stroke="#000000" stroke-width="8" stroke-miterlimit="8" fill="none" fill-rule="evenodd"/><path d="M662.908 607 667 607.024C671.418 607.024 675 610.604 675 615.02L675 647.004C675 651.42 671.418 655 667 655L635 655C630.582 655 627 651.42 627 647.004L627.028 642.173" stroke="#000000" stroke-width="8" stroke-miterlimit="8" fill="none" fill-rule="evenodd"/></g></svg>
