<svg width="97" height="96"
    xmlns="http://www.w3.org/2000/svg"
    xmlns:xlink="http://www.w3.org/1999/xlink" overflow="hidden">
    <defs>
        <clipPath id="clip0">
            <rect x="962" y="599" width="97" height="96"/>
        </clipPath>
    </defs>
    <g clip-path="url(#clip0)" transform="translate(-962 -599)">
        <path d="M984.382 673 978.5 672.965C972.149 672.965 967 667.819 967 661.471L967 615.494C967 609.146 972.149 604 978.5 604L1024.5 604C1030.85 604 1036 609.146 1036 615.494L1035.96 622.439" stroke="#000000" stroke-width="8" stroke-miterlimit="8" fill="none" fill-rule="evenodd"/>
        <path d="M984 632.667C984 626.223 989.223 621 995.667 621L1042.33 621C1048.78 621 1054 626.223 1054 632.667L1054 679.333C1054 685.777 1048.78 691 1042.33 691L995.667 691C989.223 691 984 685.777 984 679.333Z" stroke="#000000" stroke-width="8" stroke-miterlimit="8" fill="none" fill-rule="evenodd"/>
        <path d="M1034 647.91C1032.71 644.513 1031.7 642.117 1027.65 639.657 1023.6 637.198 1014.87 637.865 1011.35 639.157 1007.83 640.449 1006.24 644.701 1006.52 647.41 1006.8 650.12 1008.8 653.537 1013.01 655.413 1017.22 657.289 1024.24 657.33 1027.65 659.414 1031.05 661.499 1033.54 665.166 1033.45 667.917 1033.36 670.668 1030.5 674.586 1027.1 675.92 1023.69 677.254 1017.01 677.462 1013.01 675.92 1009 674.378 1007.28 672.023 1005 667.917" stroke="#000000" stroke-width="8" stroke-miterlimit="8" fill="none" fill-rule="evenodd"/>
    </g>
</svg>
