<svg width="75" height="70"
    xmlns="http://www.w3.org/2000/svg"
    xmlns:xlink="http://www.w3.org/1999/xlink" overflow="hidden">
    <defs>
        <clipPath id="clip0">
            <rect x="702" y="622" width="75" height="70"/>
        </clipPath>
    </defs>
    <g clip-path="url(#clip0)" transform="translate(-702 -622)">
        <path d="M728.919 666.307C725.245 666.307 722.266 669.285 722.266 672.96 722.266 676.634 725.245 679.613 728.919 679.613 732.594 679.613 735.572 676.634 735.572 672.96 735.572 669.285 732.593 666.307 728.919 666.307ZM714.672 658.923C712.633 658.923 710.98 660.576 710.98 662.615 710.98 664.654 712.633 666.307 714.672 666.307 716.711 666.307 718.363 664.654 718.363 662.615 718.363 660.576 716.711 658.923 714.672 658.923ZM721.466 641.183C718.734 641.183 716.519 643.397 716.519 646.129 716.519 648.861 718.734 651.076 721.466 651.076 724.198 651.076 726.412 648.861 726.412 646.129 726.412 643.397 724.198 641.183 721.466 641.183ZM758.042 636.42C754.367 636.42 751.389 639.399 751.389 643.074 751.389 646.748 754.367 649.727 758.042 649.727 761.716 649.727 764.695 646.748 764.695 643.074 764.695 639.399 761.716 636.42 758.042 636.42ZM738.974 629.758C735.3 629.758 732.321 632.736 732.321 636.411 732.321 640.085 735.3 643.064 738.974 643.064 742.648 643.064 745.627 640.085 745.627 636.411 745.627 632.736 742.648 629.758 738.974 629.758ZM744.325 623.712C758.678 624.79 771.126 633.831 774.882 647.396 776.721 654.04 776.214 660.826 773.836 666.996L772.932 668.796 772.403 667.812C768.559 663.375 761.88 661.364 755.252 663.199 746.414 665.645 741.014 674.003 743.191 681.865 743.735 683.831 744.701 685.579 745.983 687.058L748.731 689.157 748.565 689.22C729.126 694.602 709.391 684.602 704.486 666.885 699.581 649.167 711.364 630.442 730.803 625.06 733.233 624.388 735.667 623.955 738.077 623.748 740.185 623.567 742.275 623.559 744.325 623.712Z" stroke="#000000" stroke-width="1.33333" stroke-miterlimit="8" fill="#000000" fill-rule="evenodd"/>
    </g>
</svg>
