<svg width="85" height="76"
    xmlns="http://www.w3.org/2000/svg"
    xmlns:xlink="http://www.w3.org/1999/xlink" overflow="hidden">
    <defs>
        <clipPath id="clip0">
            <rect x="285" y="348" width="85" height="76"/>
        </clipPath>
    </defs>
    <g clip-path="url(#clip0)" transform="translate(-285 -348)">
        <path d="M310 377.5 319.25 377.5 319.25 349 337.75 349 337.75 377.5 347 377.5 328.5 396Z" fill="#000000" fill-rule="evenodd"/>
        <path d="M332.646 368.034C335.366 368.089 342.032 367.745 342.918 368.473 343.804 369.2 345.763 368.596 348.706 372.895 351.648 377.194 358.398 389.502 361.697 394.389 364.996 399.276 364.45 399.544 365 402.054L365 409.45C365 414.724 360.693 419 355.38 419L299.62 419C294.307 419 290 414.724 290 409.45L290 402.054C290.541 399.599 291.64 396.311 293.243 394.72 294.847 393.128 307.051 373.033 308.114 372.664 310.724 368.861 313.399 368.589 313.563 368.431 314.388 367.808 325.076 368.038 324.972 368.142L332.646 368.034Z" stroke="#000000" stroke-width="8" stroke-miterlimit="8" fill="none" fill-rule="evenodd"/>
        <path d="M303 398 354.18 398" stroke="#000000" stroke-width="4" stroke-miterlimit="8" fill="none" fill-rule="evenodd"/>
    </g>
</svg>
