<svg width="66" height="74" xmlns="http://www.w3.org/2000/svg" xmlns:xlink="http://www.w3.org/1999/xlink" overflow="hidden"><defs><clipPath id="clip0"><rect x="771" y="469" width="66" height="74"/></clipPath></defs><g clip-path="url(#clip0)" transform="translate(-771 -469)"><path d="M772.5 519.5C772.5 517.291 774.291 515.5 776.5 515.5 778.709 515.5 780.5 517.291 780.5 519.5 780.5 521.709 778.709 523.5 776.5 523.5 774.291 523.5 772.5 521.709 772.5 519.5Z" stroke="#000000" stroke-width="1.33333" stroke-miterlimit="8" fill-rule="evenodd"/><path d="M779.5 503C779.5 501.067 781.067 499.5 783 499.5 784.933 499.5 786.5 501.067 786.5 503 786.5 504.933 784.933 506.5 783 506.5 781.067 506.5 779.5 504.933 779.5 503Z" stroke="#000000" stroke-width="1.33333" stroke-miterlimit="8" fill-rule="evenodd"/><path d="M787.5 513.5C787.5 511.291 789.067 509.5 791 509.5 792.933 509.5 794.5 511.291 794.5 513.5 794.5 515.709 792.933 517.5 791 517.5 789.067 517.5 787.5 515.709 787.5 513.5Z" stroke="#000000" stroke-width="1.33333" stroke-miterlimit="8" fill-rule="evenodd"/><path d="M798.5 474C798.5 472.067 800.067 470.5 802 470.5 803.933 470.5 805.5 472.067 805.5 474 805.5 475.933 803.933 477.5 802 477.5 800.067 477.5 798.5 475.933 798.5 474Z" stroke="#000000" stroke-width="1.33333" stroke-miterlimit="8" fill-rule="evenodd"/><path d="M782.5 533C782.5 531.067 784.291 529.5 786.5 529.5 788.709 529.5 790.5 531.067 790.5 533 790.5 534.933 788.709 536.5 786.5 536.5 784.291 536.5 782.5 534.933 782.5 533Z" stroke="#000000" stroke-width="1.33333" stroke-miterlimit="8" fill-rule="evenodd"/><path d="M798.5 528.5C798.5 526.291 800.067 524.5 802 524.5 803.933 524.5 805.5 526.291 805.5 528.5 805.5 530.709 803.933 532.5 802 532.5 800.067 532.5 798.5 530.709 798.5 528.5Z" stroke="#000000" stroke-width="1.33333" stroke-miterlimit="8" fill-rule="evenodd"/><path d="M828.5 494C828.5 492.067 830.291 490.5 832.5 490.5 834.709 490.5 836.5 492.067 836.5 494 836.5 495.933 834.709 497.5 832.5 497.5 830.291 497.5 828.5 495.933 828.5 494Z" stroke="#000000" stroke-width="1.33333" stroke-miterlimit="8" fill-rule="evenodd"/><path d="M825.5 517C825.5 515.067 827.291 513.5 829.5 513.5 831.709 513.5 833.5 515.067 833.5 517 833.5 518.933 831.709 520.5 829.5 520.5 827.291 520.5 825.5 518.933 825.5 517Z" stroke="#000000" stroke-width="1.33333" stroke-miterlimit="8" fill-rule="evenodd"/><path d="M815.5 499C815.5 497.067 817.291 495.5 819.5 495.5 821.709 495.5 823.5 497.067 823.5 499 823.5 500.933 821.709 502.5 819.5 502.5 817.291 502.5 815.5 500.933 815.5 499Z" stroke="#000000" stroke-width="1.33333" stroke-miterlimit="8" fill-rule="evenodd"/><path d="M804.5 488.5C804.5 486.291 806.067 484.5 808 484.5 809.933 484.5 811.5 486.291 811.5 488.5 811.5 490.709 809.933 492.5 808 492.5 806.067 492.5 804.5 490.709 804.5 488.5Z" stroke="#000000" stroke-width="1.33333" stroke-miterlimit="8" fill-rule="evenodd"/><path d="M774.5 486.5C774.5 484.291 776.291 482.5 778.5 482.5 780.709 482.5 782.5 484.291 782.5 486.5 782.5 488.709 780.709 490.5 778.5 490.5 776.291 490.5 774.5 488.709 774.5 486.5Z" stroke="#000000" stroke-width="1.33333" stroke-miterlimit="8" fill-rule="evenodd"/><path d="M817.5 478C817.5 476.067 819.067 474.5 821 474.5 822.933 474.5 824.5 476.067 824.5 478 824.5 479.933 822.933 481.5 821 481.5 819.067 481.5 817.5 479.933 817.5 478Z" stroke="#000000" stroke-width="1.33333" stroke-miterlimit="8" fill-rule="evenodd"/><path d="M789 470C789.299 480.16 789.598 490.32 793.895 498.136 798.191 505.951 810.428 510.083 814.779 516.893 819.13 523.704 820 539 820 539L820 539" stroke="#000000" stroke-width="8" stroke-miterlimit="8" fill="none" fill-rule="evenodd"/></g></svg>
