<svg width="76" height="83" xmlns="http://www.w3.org/2000/svg" xmlns:xlink="http://www.w3.org/1999/xlink" overflow="hidden"><defs><clipPath id="clip0"><rect x="707" y="616" width="76" height="83"/></clipPath></defs><g clip-path="url(#clip0)" transform="translate(-707 -616)"><path d="M710 631.102C710 624.971 714.971 620 721.102 620L767.898 620C774.029 620 779 624.971 779 631.102L779 683.898C779 690.029 774.029 695 767.898 695L721.102 695C714.971 695 710 690.029 710 683.898Z" stroke="#000000" stroke-width="6" stroke-miterlimit="8" fill="none" fill-rule="evenodd"/><path d="M755 620 755 695.361" stroke="#000000" stroke-width="4" stroke-miterlimit="8" fill="none" fill-rule="evenodd"/><path d="M0 0 24.2268 0.000104987" stroke="#000000" stroke-width="4" stroke-miterlimit="8" fill="none" fill-rule="evenodd" transform="matrix(-1 0 0 1 778.227 641)"/><path d="M0 0 24.2268 0.000104987" stroke="#000000" stroke-width="4" stroke-miterlimit="8" fill="none" fill-rule="evenodd" transform="matrix(-1 0 0 1 777.227 661)"/><path d="M0 0 24.2268 0.000104987" stroke="#000000" stroke-width="4" stroke-miterlimit="8" fill="none" fill-rule="evenodd" transform="matrix(-1 0 0 1 779.227 680)"/></g></svg>
