<svg width="79" height="83" xmlns="http://www.w3.org/2000/svg" xmlns:xlink="http://www.w3.org/1999/xlink" overflow="hidden"><defs><clipPath id="clip0"><rect x="509" y="615" width="79" height="83"/></clipPath></defs><g clip-path="url(#clip0)" transform="translate(-509 -615)"><path d="M513 624 542.3 624" stroke="#000000" stroke-width="8" stroke-miterlimit="8" fill="none" fill-rule="evenodd"/><path d="M512 624.528C512 620.923 514.923 618 518.528 618L537.472 618C541.077 618 544 620.923 544 624.528L544 687.472C544 691.077 541.077 694 537.472 694L518.528 694C514.923 694 512 691.077 512 687.472Z" stroke="#000000" stroke-width="6" stroke-miterlimit="8" fill="none" fill-rule="evenodd"/><path d="M553 624 582.3 624" stroke="#000000" stroke-width="8" stroke-miterlimit="8" fill="none" fill-rule="evenodd"/><path d="M552 624.528C552 620.923 554.923 618 558.528 618L577.472 618C581.077 618 584 620.923 584 624.528L584 687.472C584 691.077 581.077 694 577.472 694L558.528 694C554.923 694 552 691.077 552 687.472Z" stroke="#000000" stroke-width="6" stroke-miterlimit="8" fill="none" fill-rule="evenodd"/></g></svg>
